HIERARCHY
ROOT Hips
{
	OFFSET 0.00000 0.00000 0.00000
	CHANNELS 6 Xposition Yposition Zposition Zrotation Yrotation Xrotation 
	JOINT RightUpLegDummy
	{
		OFFSET 0 0 0
		CHANNELS 3 Zrotation Yrotation Xrotation
		JOINT RightUpLeg
		{
			OFFSET -3.52197 -3.41223 0.04002
			CHANNELS 3 Zrotation Yrotation Xrotation
			JOINT RightLeg
			{
				OFFSET 0.00006 -17.42390 1.60435
				CHANNELS 3 Zrotation Yrotation Xrotation
				JOINT RightFoot
				{
					OFFSET 0.06153 -16.50078 -1.63901
					CHANNELS 3 Zrotation Yrotation Xrotation
					JOINT RightToes
					{
						OFFSET 0.00298 -1.73825 3.34613
						CHANNELS 3 Zrotation Yrotation Xrotation
						End Site
						{
							OFFSET 0.00480 -0.05416 3.85043
						}
					}
				}
			}
		}
	}
	JOINT SpineDummy
	{
		OFFSET 0 0 0
		CHANNELS 3 Zrotation Yrotation Xrotation
		JOINT Spine
		{
			OFFSET 0.00000 4.68130 0.00000
			CHANNELS 3 Zrotation Yrotation Xrotation
			JOINT Spine1
			{
				OFFSET -0.00000 10.10138 0.05002
				CHANNELS 3 Zrotation Yrotation Xrotation
				JOINT HEadDummy
				{
					OFFSET 0 0 0
					CHANNELS 3 Zrotation Yrotation Xrotation
					JOINT Head
					{
						OFFSET -0.00000 3.43865 0.00438
						CHANNELS 3 Zrotation Yrotation Xrotation
						End Site
						{
							OFFSET -0.11417 5.02924 0.98962
						}
					}
				}
				JOINT LeftShoulder1Dummy
				{
					OFFSET 0 0 0
					CHANNELS 3 Zrotation Yrotation Xrotation
					JOINT LeftShoulder1
					{
						OFFSET 3.53937 -0.14262 -0.08662
						CHANNELS 3 Zrotation Yrotation Xrotation
						JOINT LeftArm
						{
							OFFSET 4.04833 -0.00133 0.12681
							CHANNELS 3 Zrotation Yrotation Xrotation
							JOINT LeftForeArm
							{
								OFFSET 10.33880 -0.01036 -0.55515
								CHANNELS 3 Zrotation Yrotation Xrotation
								JOINT LeftHand
								{
									OFFSET 8.69677 0.07543 0.40060
									CHANNELS 3 Zrotation Yrotation Xrotation
									End Site
									{
										OFFSET 5.28377 -0.21905 0.59205
									}
								}
							}
						}
					}
				}
				JOINT RightShoulderDummy
				{
					OFFSET 0 0 0
					CHANNELS 3 Zrotation Yrotation Xrotation
					JOINT RightShoulder
					{
						OFFSET -3.53937 -0.14262 -0.08660
						CHANNELS 3 Zrotation Yrotation Xrotation
						JOINT RightArm
						{
							OFFSET -4.04833 -0.00133 0.12683
							CHANNELS 3 Zrotation Yrotation Xrotation
							JOINT RightForeArm
							{
								OFFSET -10.37987 -0.01039 -0.55511
								CHANNELS 3 Zrotation Yrotation Xrotation
								JOINT RightHand
								{
									OFFSET -8.67398 0.07538 0.40058
									CHANNELS 3 Zrotation Yrotation Xrotation
									End Site
									{
										OFFSET -5.24810 -0.21916 0.59204
									}
								}
							}
						}
					}
				}
			}
		}
	}
	JOINT LeftUpLegDummy
	{
		OFFSET 0 0 0
		CHANNELS 3 Zrotation Yrotation Xrotation
		JOINT LeftUpLeg
		{
			OFFSET 3.52197 -3.41223 0.04002
			CHANNELS 3 Zrotation Yrotation Xrotation
			JOINT LeftLeg
			{
				OFFSET -0.00012 -17.42399 1.60337
				CHANNELS 3 Zrotation Yrotation Xrotation
				JOINT LeftFoot
				{
					OFFSET -0.09972 -16.50070 -1.63802
					CHANNELS 3 Zrotation Yrotation Xrotation
					JOINT LeftToes
					{
						OFFSET -0.01575 -1.73823 3.34611
						CHANNELS 3 Zrotation Yrotation Xrotation
						End Site
						{
							OFFSET 0.03150 -0.01868 3.85031
						}
					}
				}
			}
		}
	}
}
MOTION
Frames: 14
Frame Time: 0.033333
-0.1929 40.1771 -4.4849 -1.8603 -2.3506 -2.0829 0.0000 0.0000 0.0000 0.9641 -1.8121 1.7751 -2.0801 -9.4666 2.7680 0.0227 -0.0120 -1.9039 0.0000 -0.0000 0.0000 0.0000 0.0000 0.0000 0.8884 -0.3774 1.8228 3.9557 -1.2006 0.7670 -0.0000 0.0000 -0.0000 0.2356 4.0750 -4.8506 -0.0000 0.0000 -0.0000 -34.7454 -2.6158 2.5005 -45.0307 -15.0416 -17.0821 -10.6452 5.1058 48.7824 15.1402 -3.2462 -1.1021 -0.0000 0.0000 -0.0000 34.4520 5.0818 3.4709 40.1804 4.7567 -17.7729 10.2619 0.4938 23.7954 -13.2197 3.2454 -0.9590 0.0000 0.0000 0.0000 3.2658 2.5053 2.5168 1.9253 5.9185 5.7698 1.0025 -0.0043 -5.3725 0.0000 0.0000 -0.0000
-0.1895 40.1771 -4.4849 -1.8648 -2.3805 -2.0829 0.0000 0.0000 0.0000 0.9641 -1.8121 1.7751 -2.0653 -9.4251 2.7685 0.0296 -0.0124 -1.9015 0.0000 -0.0000 0.0000 0.0000 0.0000 0.0000 0.8937 -0.3787 1.8481 3.9767 -1.2037 0.7770 -0.0000 0.0000 -0.0000 0.3148 3.7800 -4.9031 -0.0000 0.0000 -0.0000 -34.8218 -2.6167 2.5005 -45.0045 -15.0101 -16.9692 -10.7172 5.1060 48.7453 15.1413 -3.3427 -1.1141 -0.0000 0.0000 -0.0000 34.4123 5.0818 3.4709 40.1494 4.7063 -17.5425 10.3668 0.6311 23.5228 -12.9676 2.8997 -0.9041 0.0000 0.0000 0.0000 3.2657 2.5179 2.5133 1.9145 5.9336 5.7968 1.0214 -0.0055 -5.3885 0.0000 0.0000 -0.0000
-0.1828 40.1771 -4.4849 -1.8724 -2.4435 -2.0768 0.0000 0.0000 0.0000 0.9641 -1.8044 1.7751 -2.0620 -9.3606 2.7640 0.0338 -0.0127 -1.8907 0.0000 -0.0000 0.0000 0.0000 0.0000 0.0000 0.9110 -0.3885 1.8555 3.9722 -1.2174 0.8638 -0.0000 0.0000 -0.0000 0.5244 3.1622 -4.9942 -0.0000 0.0000 -0.0000 -34.8612 -2.5973 2.4956 -45.0220 -15.0052 -16.7814 -10.8228 5.1081 48.6297 15.0289 -3.4226 -1.1154 -0.0000 0.0000 -0.0000 34.4216 5.0850 3.4730 39.9127 4.6952 -17.0469 10.5938 0.8410 23.0810 -12.3885 2.3073 -0.8035 0.0000 0.0000 0.0000 3.2657 2.5287 2.4966 1.9126 5.9837 5.8399 1.0465 -0.0071 -5.4060 0.0000 0.0000 -0.0000
-0.1749 40.1771 -4.4826 -1.8828 -2.5137 -2.0660 0.0000 0.0000 0.0000 0.9641 -1.7822 1.7787 -2.0728 -9.3103 2.7415 0.0470 -0.0136 -1.8733 0.0000 -0.0000 0.0000 0.0000 0.0000 0.0000 0.9392 -0.4119 1.7934 3.9211 -1.2404 1.0611 -0.0000 0.0000 -0.0000 0.7276 2.8057 -5.0858 -0.0000 0.0000 -0.0000 -34.7869 -2.5512 2.4722 -45.0281 -15.0806 -16.6493 -10.8753 5.1078 48.6179 14.3841 -3.6404 -1.0911 -0.0000 0.0000 -0.0000 34.5399 5.1054 3.4916 39.3356 4.7191 -16.4293 10.8505 1.1478 22.9421 -11.5565 1.9521 -0.7149 0.0000 0.0000 0.0000 3.2614 2.5292 2.4893 1.9250 6.0552 5.8616 1.0869 -0.0097 -5.4092 0.0000 0.0000 -0.0000
-0.1664 40.1771 -4.4782 -1.8897 -2.5831 -2.0700 0.0000 0.0000 0.0000 0.9617 -1.7763 1.7941 -2.0703 -9.2553 2.7143 0.0658 -0.0149 -1.8632 0.0000 -0.0000 0.0000 0.0000 0.0000 0.0000 0.9846 -0.4226 1.7039 3.8254 -1.2432 1.2880 -0.0000 0.0000 -0.0000 0.8409 2.9288 -5.1799 -0.0000 0.0000 -0.0000 -34.6499 -2.4852 2.4369 -44.8535 -15.1872 -16.6414 -10.8494 5.1027 48.8045 12.8740 -4.1333 -1.0232 -0.0000 0.0000 -0.0000 34.6672 5.1186 3.5081 38.5187 4.6120 -15.8132 11.0539 1.7525 23.2563 -10.6532 2.0161 -0.6626 0.0000 0.0000 0.0000 3.2448 2.5185 2.5192 1.9470 6.1393 5.8467 1.1328 -0.0127 -5.3987 0.0000 0.0000 -0.0000
-0.1576 40.1771 -4.4749 -1.8801 -2.6589 -2.0845 0.0000 0.0000 0.0000 0.9298 -1.7988 1.8006 -2.0490 -9.1634 2.7237 0.0650 -0.0148 -1.8691 0.0000 -0.0000 0.0000 0.0000 0.0000 0.0000 1.0492 -0.4005 1.6755 3.6893 -1.2002 1.4099 -0.0000 0.0000 -0.0000 0.9422 3.1472 -5.2720 -0.0000 0.0000 -0.0000 -34.5316 -2.4185 2.4027 -44.3750 -15.2014 -16.7232 -10.8154 5.1037 48.7845 10.8445 -4.7065 -0.9048 -0.0000 0.0000 -0.0000 34.6475 5.1065 3.5014 37.6639 4.3544 -15.3979 11.1562 2.5143 23.6768 -9.9956 2.3161 -0.6441 0.0000 0.0000 0.0000 3.2068 2.4957 2.5601 1.9770 6.2399 5.8273 1.1469 -0.0136 -5.3837 0.0000 0.0000 -0.0000
-0.1498 40.1771 -4.4743 -1.8534 -2.7240 -2.0858 0.0000 0.0000 0.0000 0.8820 -1.8262 1.7703 -2.0350 -9.0648 2.7696 0.0487 -0.0137 -1.8812 0.0000 -0.0000 0.0000 0.0000 0.0000 0.0000 1.1173 -0.3624 1.7202 3.5396 -1.1324 1.3919 -0.0000 0.0000 -0.0000 1.1072 3.1529 -5.3198 -0.0000 0.0000 -0.0000 -34.4570 -2.3753 2.3808 -43.5915 -15.0678 -16.8163 -10.8729 5.1268 47.9605 9.2426 -5.1104 -0.7935 -0.0000 0.0000 -0.0000 34.4358 5.0777 3.4713 36.8161 4.1549 -15.3980 11.1536 2.9344 23.7456 -9.8477 2.6168 -0.6576 0.0000 0.0000 0.0000 3.1570 2.4721 2.5629 1.9999 6.3303 5.8396 1.1314 -0.0126 -5.3704 0.0000 0.0000 -0.0000
-0.1436 40.1771 -4.4724 -1.8275 -2.7419 -2.0706 0.0000 0.0000 0.0000 0.8466 -1.8373 1.7380 -2.0418 -9.0249 2.7962 0.0543 -0.0141 -1.8851 0.0000 -0.0000 0.0000 0.0000 0.0000 0.0000 1.1753 -0.3427 1.7684 3.4175 -1.0872 1.3276 -0.0000 0.0000 -0.0000 1.2791 3.1009 -5.3022 -0.0000 0.0000 -0.0000 -34.3894 -2.3604 2.3707 -42.5820 -14.8912 -16.9508 -10.9981 5.1704 46.3650 8.8019 -5.3539 -0.7701 -0.0000 0.0000 -0.0000 34.1233 5.0482 3.4323 35.8634 4.1218 -15.8109 11.0739 2.8557 23.3058 -10.1955 2.7821 -0.6949 0.0000 0.0000 0.0000 3.1252 2.4685 2.5336 1.9890 6.3574 5.8656 1.1381 -0.0130 -5.3579 0.0000 0.0000 -0.0000
-0.1385 40.1771 -4.4706 -1.8194 -2.7061 -2.0592 0.0000 0.0000 0.0000 0.8334 -1.8383 1.7452 -2.0516 -9.0547 2.7729 0.0862 -0.0161 -1.8796 0.0000 -0.0000 0.0000 0.0000 0.0000 0.0000 1.2307 -0.3515 1.7870 3.3344 -1.0806 1.2965 -0.0000 0.0000 -0.0000 1.3841 3.1671 -5.2721 -0.0000 0.0000 -0.0000 -34.2759 -2.3561 2.3622 -41.4395 -14.8394 -17.2870 -11.0306 5.2144 44.7316 9.4840 -5.4889 -0.8436 -0.0000 0.0000 -0.0000 33.8272 5.0172 3.3944 34.7519 4.1041 -16.4248 10.9396 2.6896 22.5487 -10.7184 2.6994 -0.7248 0.0000 0.0000 0.0000 3.1255 2.4877 2.5155 1.9475 6.3115 5.8703 1.1900 -0.0163 -5.3448 0.0000 0.0000 -0.0000
-0.1346 40.1771 -4.4699 -1.8303 -2.6414 -2.0594 0.0000 0.0000 0.0000 0.8377 -1.8398 1.7738 -2.0511 -9.1192 2.7343 0.0991 -0.0170 -1.8709 0.0000 -0.0000 0.0000 0.0000 0.0000 0.0000 1.2914 -0.3750 1.8151 3.2718 -1.0939 1.2774 -0.0000 0.0000 -0.0000 1.4381 3.2558 -5.2882 -0.0000 0.0000 -0.0000 -34.0873 -2.3547 2.3505 -40.2530 -14.9628 -17.8937 -10.8806 5.2467 43.5715 10.8205 -5.3594 -0.9582 -0.0000 0.0000 -0.0000 33.5992 4.9790 3.3597 33.5782 3.9716 -17.1425 10.7341 2.7171 21.8419 -11.0718 2.4094 -0.7243 0.0000 0.0000 0.0000 3.1412 2.5055 2.5067 1.9180 6.2376 5.8708 1.2438 -0.0198 -5.3361 0.0000 0.0000 -0.0000
-0.1331 40.1771 -4.4718 -1.8520 -2.5560 -2.0576 0.0000 0.0000 0.0000 0.8584 -1.8354 1.7867 -2.0535 -9.2108 2.7159 0.0764 -0.0156 -1.8624 0.0000 -0.0000 0.0000 0.0000 0.0000 0.0000 1.3421 -0.4032 1.8700 3.2238 -1.1132 1.2293 -0.0000 0.0000 -0.0000 1.4720 3.3103 -5.3115 -0.0000 0.0000 -0.0000 -33.8263 -2.3706 2.3413 -39.1107 -15.1592 -18.5902 -10.6581 5.2710 42.7276 12.4152 -4.9284 -1.0644 -0.0000 0.0000 -0.0000 33.4160 4.9403 3.3288 32.4915 3.8111 -18.0492 10.4322 2.6853 21.4148 -11.2239 2.1978 -0.7157 0.0000 0.0000 0.0000 3.1558 2.5021 2.4698 1.9255 6.1627 5.9047 1.2579 -0.0207 -5.3374 0.0000 0.0000 -0.0000
-0.1353 40.1771 -4.4751 -1.8762 -2.4483 -2.0456 0.0000 0.0000 0.0000 0.8927 -1.8181 1.7848 -2.0714 -9.3348 2.7083 0.0648 -0.0148 -1.8565 0.0000 -0.0000 0.0000 0.0000 0.0000 0.0000 1.3671 -0.4309 1.9157 3.1955 -1.1347 1.1659 -0.0000 0.0000 -0.0000 1.4686 3.4395 -5.2382 -0.0000 0.0000 -0.0000 -33.5232 -2.4059 2.3373 -38.0823 -15.3144 -19.1671 -10.4982 5.2921 41.9611 13.8925 -4.4869 -1.1479 -0.0000 0.0000 -0.0000 33.2353 4.9087 3.3010 31.5894 3.7384 -19.0628 10.0987 2.3374 21.1121 -11.4206 2.2272 -0.7314 0.0000 0.0000 0.0000 3.1726 2.4869 2.4087 1.9450 6.0757 5.9547 1.2421 -0.0197 -5.3399 0.0000 0.0000 -0.0000
-0.1402 40.1771 -4.4770 -1.8942 -2.3523 -2.0325 0.0000 0.0000 0.0000 0.9266 -1.7963 1.7852 -2.0944 -9.4507 2.6955 0.0937 -0.0167 -1.8542 0.0000 -0.0000 0.0000 0.0000 0.0000 0.0000 1.3764 -0.4449 1.9443 3.1744 -1.1432 1.1094 -0.0000 0.0000 -0.0000 1.4256 3.6226 -5.0437 -0.0000 0.0000 -0.0000 -33.2424 -2.4344 2.3317 -37.1846 -15.4140 -19.6776 -10.3583 5.3088 41.3476 14.8268 -4.2073 -1.1946 -0.0000 0.0000 -0.0000 33.0545 4.8809 3.2749 30.9266 3.7397 -19.8961 9.8518 1.8141 20.6471 -11.7849 2.3158 -0.7637 0.0000 0.0000 0.0000 3.1955 2.4797 2.3668 1.9464 5.9879 5.9732 1.2242 -0.0185 -5.3363 0.0000 0.0000 -0.0000
-0.1472 40.1771 -4.4776 -1.9017 -2.3069 -2.0300 0.0000 0.0000 0.0000 0.9509 -1.7794 1.7933 -2.1091 -9.5145 2.6803 0.1167 -0.0182 -1.8500 0.0000 -0.0000 0.0000 0.0000 0.0000 0.0000 1.3816 -0.4382 1.9867 3.1532 -1.1303 1.0594 -0.0000 0.0000 -0.0000 1.3815 3.6933 -4.8215 -0.0000 0.0000 -0.0000 -33.0597 -2.4362 2.3215 -36.4204 -15.4942 -20.2762 -10.1366 5.3210 40.9483 15.0689 -3.8935 -1.1764 -0.0000 0.0000 -0.0000 32.9106 4.8518 3.2515 30.5570 3.7918 -20.4873 9.6916 1.3048 20.0988 -12.1150 2.3346 -0.7876 0.0000 0.0000 0.0000 3.2189 2.4861 2.3629 1.9344 5.9320 5.9590 1.2154 -0.0180 -5.3250 0.0000 0.0000 -0.0000
